<!-- Source: https://upload.wikimedia.org/wikipedia/commons/2/26/Kbank_logo.svg retrieved 2026-05-12 -->
<svg xmlns="http://www.w3.org/2000/svg" xmlns:xlink="http://www.w3.org/1999/xlink" viewBox="0 0 138.54 34.161"><defs><path id="a" d="M25.62 0v34.16H0V0z"/><path id="d" d="M22.774 0v33.212H0V0z"/><path id="f" d="M25.62 0v24.672H0V0z"/></defs><g fill="none" fill-rule="evenodd"><g transform="translate(30.365)"><mask id="b" fill="#fff"><use xlink:href="#a" width="100%" height="100%"/></mask><path fill="#0f0060" d="M12.787 28.104c-3.522 0-6.387-2.828-6.387-6.303 0-3.477 2.865-6.304 6.387-6.304s6.387 2.827 6.387 6.304c0 3.475-2.865 6.303-6.387 6.303m1.07-18.68c-2.517 0-4.847.882-6.56 2.481l-.59.55V0H0v21.285c0 7.942 4.81 12.876 12.554 12.876 7.571 0 13.066-5.192 13.066-12.345 0-7.18-4.947-12.391-11.762-12.391" mask="url(#b)"/></g><path fill="#0f0060" d="M6.65 0H0v33.212h6.65V18.225l13.27 14.987h8.547L13.786 16.606 28.07 0h-8.415L6.65 15.12z"/><g transform="translate(115.766)"><mask id="e" fill="#fff"><use xlink:href="#d" width="100%" height="100%"/></mask><path fill="#0f0060" d="M6.71 20.112V0H0v33.212h6.71v-9.957l8.589 9.957h7.475L12.83 21.684l9.944-11.528h-7.475z" mask="url(#e)"/></g><path fill="#0f0060" d="M103.183 9.49c-4.024 0-6.508 1.892-7.694 3.219v-2.435h-6.292v22.938h6.52l-.001-12.492c0-3.123 2.163-5.304 4.868-5.304s4.868 2.181 4.868 5.304v12.492h6.519v-14.46c0-5.367-3.87-9.263-8.788-9.263"/><g transform="translate(58.832 9.49)"><mask id="g" fill="#fff"><use xlink:href="#f" width="100%" height="100%"/></mask><path fill="#0f0060" d="M12.965 18.63c-3.478 0-6.307-2.82-6.307-6.286 0-3.467 2.829-6.287 6.307-6.287 3.477 0 6.306 2.82 6.306 6.287s-2.829 6.287-6.306 6.287M12.764 0C5.368 0 0 5.198 0 12.359c0 7.134 4.947 12.313 11.762 12.313 4.844 0 7.432-3.497 7.458-3.532l.375-.518V23.9h6.025V12.36C25.62 5.198 20.214 0 12.764 0" mask="url(#g)"/></g></g></svg>