<!-- Source: https://www.kbfg.com/common/jsp/fileDownUtil.jsp?filepath=/kor/about/__attachFile/KB_SymbolMark_AI.zip extracted via pdftocairo + path bbox filter, retrieved 2026-05-13 -->
<svg xmlns="http://www.w3.org/2000/svg" viewBox="240 205 185 135" preserveAspectRatio="xMidYMid meet">
<path fill-rule="nonzero" fill="rgb(98.823547%, 68.62793%, 8.627319%)" fill-opacity="1" d="M 418.679688 273.632812 C 418.679688 273.632812 417.160156 272.664062 417.160156 272.664062 C 411.972656 267.488281 404.75 265.246094 395.09375 265.808594 C 387.054688 266.300781 380.679688 269.488281 375.8125 272.449219 C 375.8125 272.375 375.804688 272.300781 375.804688 272.230469 C 375.804688 269.710938 376.085938 266.984375 376.375 264.332031 C 376.648438 261.636719 376.941406 258.894531 376.941406 256.300781 C 376.941406 253.652344 376.644531 251.140625 375.730469 248.996094 C 375.5 248.441406 374.992188 248.117188 374.351562 248.117188 C 371.753906 248.171875 366.683594 249.953125 365.453125 251.027344 C 365.453125 251.035156 364.78125 252.492188 364.78125 252.492188 C 364.742188 255.371094 364.105469 263.398438 363.464844 264.378906 C 363.492188 264.339844 363.125 265.34375 363.125 265.34375 C 362.03125 276.8125 362.011719 286.898438 363.019531 295.554688 C 363.132812 296.421875 364.804688 297.71875 366.085938 298.191406 C 367.5 298.714844 371.917969 297.53125 374.464844 296.574219 C 374.429688 296.582031 375.417969 296.421875 375.417969 296.421875 C 376.222656 296.332031 376.695312 295.65625 376.664062 294.738281 C 376.648438 294.71875 376.722656 292.246094 376.722656 292.246094 C 378.5625 284.773438 386 275.855469 394.804688 274.515625 C 399.78125 273.730469 403.710938 275.007812 406.8125 278.386719 C 407.234375 278.996094 408.140625 284.375 404.859375 290.550781 C 402.417969 295.125 397.535156 298.984375 391.113281 301.390625 C 385.035156 303.703125 378.347656 304.632812 370.082031 304.351562 C 369.738281 304.128906 362.347656 299.121094 362.347656 299.121094 C 355.796875 294.523438 347.65625 288.796875 340.277344 286 C 338.980469 285.5 336.660156 283.574219 335.261719 282.417969 L 334.496094 281.792969 C 330.242188 278.378906 322.144531 272.980469 315.640625 268.652344 C 315.640625 268.652344 312.703125 266.679688 312.136719 266.300781 C 312.144531 266.058594 312.144531 265.5625 312.144531 265.5625 C 312.332031 265.359375 316.421875 262.90625 316.421875 262.90625 C 322.144531 259.558594 324.789062 257.917969 325.347656 257.070312 C 325.234375 257.207031 326.105469 256.621094 326.105469 256.621094 C 326.160156 256.597656 340.292969 248.59375 340.292969 248.59375 C 353.910156 241.117188 369.332031 232.625 377.433594 224.238281 C 377.449219 224.226562 377.832031 222.953125 377.832031 222.953125 L 378.007812 221.8125 C 378.550781 220.015625 378.578125 218.644531 378.125 217.046875 C 378.007812 216.59375 377.589844 216.066406 377.027344 215.964844 C 370.699219 215.335938 362.546875 219.128906 355.113281 226.097656 C 353.4375 227.664062 352.03125 228.4375 350.542969 229.242188 L 349.40625 229.878906 C 341.21875 234.535156 322.773438 245.984375 313.109375 252.160156 C 313.746094 241.777344 315.664062 227.003906 318.03125 214.691406 L 317.769531 213.222656 C 317.742188 213.171875 316.769531 211.359375 316.769531 211.359375 L 316.015625 210.027344 L 315.800781 209.96875 C 313.871094 208.996094 312.296875 209.390625 311.140625 209.679688 L 309.214844 210.390625 L 306.636719 211.324219 C 306.132812 211.425781 305.773438 211.742188 305.578125 212.230469 C 300.964844 223.378906 297.117188 241.714844 296.207031 256.382812 C 286.988281 250.519531 278.46875 246.304688 274.289062 244.269531 L 274.175781 244.203125 L 273.683594 244.09375 C 272.175781 243.902344 270.339844 242.796875 268.582031 241.726562 C 268.394531 241.617188 265.074219 239.457031 265.074219 239.457031 L 259.71875 236.023438 C 259.761719 236.058594 258.304688 235.703125 258.304688 235.703125 C 256.007812 236.097656 251.589844 239.066406 250.28125 241.09375 C 250.109375 241.359375 250.035156 241.648438 250.035156 241.953125 C 250.035156 242.378906 250.171875 242.808594 250.28125 243.222656 L 250.515625 244.3125 L 250.765625 244.96875 C 253.335938 247.597656 259.8125 251.984375 266.164062 255.398438 L 273.527344 259.300781 L 284.800781 265.457031 C 284.800781 265.507812 286.71875 266.984375 286.71875 266.984375 L 288.042969 267.746094 C 288.042969 267.746094 288.199219 267.835938 288.289062 267.894531 C 285.285156 269.90625 267.785156 281.585938 267.785156 281.585938 L 257.007812 288.730469 C 255.988281 289.421875 251.734375 291.328125 250.792969 291.703125 C 248.460938 292.65625 246.6875 294.117188 245.960938 295.703125 L 245.667969 296.328125 L 245.960938 296.738281 L 246.785156 297.363281 C 246.742188 297.363281 247.886719 298.085938 247.886719 298.085938 L 249.078125 298.898438 C 249.101562 298.910156 250.199219 299.078125 250.199219 299.078125 C 252.089844 299.152344 254.898438 298.070312 260.144531 295.773438 C 264.96875 293.640625 278.058594 285.738281 283.65625 282.367188 L 286.042969 280.9375 C 287.03125 281.019531 288.109375 280.183594 289.085938 279.453125 C 290.207031 278.558594 292.648438 277.054688 294.136719 276.398438 C 294.183594 276.386719 295.027344 275.914062 295.832031 275.464844 C 295.828125 275.714844 295.820312 276.105469 295.820312 276.105469 C 296.070312 293.230469 297.050781 305.675781 298.925781 315.269531 L 298.949219 315.433594 L 299.132812 315.820312 C 300.054688 317.171875 301.101562 321.230469 302.035156 324.808594 L 304.164062 331.953125 C 304.210938 332.039062 304.765625 332.625 304.765625 332.625 C 305.980469 333.453125 309.695312 334.875 312.167969 334.582031 L 312.785156 334.507812 L 313.175781 333.636719 C 313.386719 332.570312 313.460938 331.519531 313.460938 330.359375 C 313.460938 329.058594 313.367188 327.621094 313.25 325.855469 L 313.082031 323.277344 C 312.296875 311.328125 311.515625 294.070312 311.515625 282.597656 L 311.515625 281.683594 C 313.550781 282.957031 322.425781 288.554688 322.425781 288.554688 C 337.546875 298.363281 360.378906 313.175781 374.179688 317.09375 C 374.898438 317.3125 375.65625 317.140625 376.183594 316.636719 C 376.203125 316.609375 378.304688 315.273438 378.304688 315.273438 L 378.707031 315.109375 C 379.496094 314.730469 380.023438 313.398438 380.117188 311.953125 C 391.75 311.367188 407.96875 306.886719 416.652344 295.976562 C 420.011719 291.742188 421.519531 286.5625 421.519531 282.128906 C 421.519531 278.492188 420.511719 275.359375 418.679688 273.632812 "/>
<path fill="none" stroke-width="0.5" stroke-linecap="butt" stroke-linejoin="miter" stroke="rgb(0%, 68.235779%, 93.725586%)" stroke-opacity="1" stroke-miterlimit="4" d="M 427.645525 277.251321 L 246.01595 277.251321 L 246.01595 402.672367 L 427.645525 402.672367 Z M 427.645525 277.251321 " transform="matrix(0.998792, 0, 0, -0.998792, 0, 841.326542)"/>
</svg>
